#!OML:ASF E:\Style4\Style4.ASF
:FULLY-SPECIFIED
:DEGREES
1835
root 1.45934 16.2824 0.127493 2.62615 -18.3552 5.36637
lowerback 14.9245 2.10102 -4.68903
upperback 6.86781 2.06865 0.0135175
thorax -1.25056 0.910825 2.33255
lowerneck 8.87452 -12.0446 -6.8209
upperneck 2.67119 -16.6269 8.7714
head 0.774519 -8.46156 4.20401
rclavicle 9.93923e-016 -8.74653e-015
rhumerus -29.9274 19.4188 -64.3233
rradius 136.194
rwrist -73.2818
rhand 56.5719 -2.4364
rfingers 7.12502
rthumb 73.519 18.5583
lclavicle 9.93923e-016 -8.74653e-015
lhumerus -16.0133 -18.6894 58.7482
lradius 140.314
lwrist 73.8328
lhand 36.2852 49.346
lfingers 7.12502
lthumb 59.251 63.8892
rfemur -36.1934 4.41422 7.21754
rtibia 62.964
rfoot -26.7602 -13.5272
rtoes -21.2809
lfemur -28.1305 7.71659 -31.2216
ltibia 59.6517
lfoot -36.4622 19.0922
ltoes -14.0099
1836
root 1.45496 16.289 0.134782 2.58927 -18.3296 5.33837
lowerback 14.9274 2.08475 -4.71986
upperback 6.89381 2.04438 0.0461868
thorax -1.22462 0.896592 2.38845
lowerneck 8.90991 -12.0493 -6.80806
upperneck 2.6752 -16.6316 8.69565
head 0.761592 -8.46332 4.17916
rclavicle 2.5842e-015 -1.31198e-014
rhumerus -29.8219 19.6327 -64.1984
rradius 136.044
rwrist -73.3936
rhand 56.4297 -2.49442
rfingers 7.12502
rthumb 73.4606 18.0629
lclavicle 2.5842e-015 -1.31198e-014
lhumerus -16.2317 -18.7588 58.636
lradius 140.294
lwrist 73.6649
lhand 36.3007 49.2192
lfingers 7.12502
lthumb 59.2644 63.7492
rfemur -36.0487 4.4279 7.27442
rtibia 62.8631
rfoot -26.7348 -13.6364
rtoes -21.4287
lfemur -27.994 7.73547 -31.1663
ltibia 59.5637
lfoot -36.4678 19.009
ltoes -14.1943
1837
root 1.45157 16.2938 0.140368 2.52534 -18.2907 5.41879
lowerback 14.9398 2.0862 -4.81529
upperback 6.91385 2.03322 0.0438167
thorax -1.21139 0.888504 2.44151
lowerneck 8.98682 -12.0599 -6.82311
upperneck 2.64651 -16.6474 8.65489
head 0.737729 -8.47233 4.17522
rclavicle 1.5704e-014 -2.34566e-014
rhumerus -29.7663 19.8493 -64.0339
rradius 135.909
rwrist -73.4509
rhand 56.2763 -2.68256
rfingers 7.12502
rthumb 73.3966 17.4063
lclavicle 1.5704e-014 -2.34566e-014
lhumerus -16.3088 -18.8885 58.386
lradius 140.265
lwrist 73.5185
lhand 36.4131 49.0077
lfingers 7.12502
lthumb 59.3612 63.4416
rfemur -35.9266 4.41125 7.20063
rtibia 62.7638
rfoot -26.7307 -13.6546
rtoes -21.5575
lfemur -27.8546 7.72305 -31.2302
ltibia 59.4451
lfoot -36.4391 18.9319
ltoes -13.6013
1838
root 1.44799 16.3006 0.145789 2.49763 -18.26 5.36162
lowerback 14.9253 2.09445 -4.73898
upperback 6.95467 2.05588 0.050996
thorax -1.16061 0.89931 2.40341
lowerneck 9.00109 -12.0859 -6.79091
upperneck 2.63956 -16.6779 8.61554
head 0.72896 -8.4869 4.15749
rclavicle 7.55382e-015 4.37326e-015
rhumerus -29.834 20.0397 -63.8899
rradius 135.816
rwrist -73.4147
rhand 56.1949 -2.75517
rfingers 7.12502
rthumb 73.3621 17.0866
lclavicle 7.55382e-015 4.37326e-015
lhumerus -16.2902 -19.1185 57.9811
lradius 140.283
lwrist 73.4543
lhand 36.3213 48.8748
lfingers 7.12502
lthumb 59.2822 63.3872
rfemur -35.7631 4.43051 7.27801
rtibia 62.6419
rfoot -26.7782 -13.6883
rtoes -21.6049
lfemur -27.7172 7.74336 -31.1442
ltibia 59.329
lfoot -36.3914 18.8848
ltoes -13.4356
1839
root 1.44384 16.3098 0.15269 2.47426 -18.2425 5.28213
lowerback 14.9213 2.11919 -4.55575
upperback 7.03702 2.11226 -0.00857574
thorax -1.06878 0.928434 2.23019
lowerneck 8.74926 -12.1544 -6.59857
upperneck 2.75927 -16.7467 8.54867
head 0.79359 -8.51267 4.07585
rclavicle -4.19436e-014 1.19271e-015
rhumerus -29.85 20.1247 -63.7235
rradius 135.74
rwrist -73.4041
rhand 56.1958 -2.85903
rfingers 7.12502
rthumb 73.3625 16.9856
lclavicle -4.19436e-014 1.19271e-015
lhumerus -16.0817 -19.4927 57.3476
lradius 140.334
lwrist 73.4349
lhand 35.9143 48.873
lfingers 7.12502
lthumb 58.9308 63.7288
rfemur -35.5822 4.45657 7.38374
rtibia 62.5098
rfoot -26.8288 -13.661
rtoes -21.4739
lfemur -27.5606 7.76662 -31.0262
ltibia 59.2027
lfoot -36.4087 18.8826
ltoes -14.3316
1840
root 1.4381 16.317 0.159435 2.46566 -18.1956 5.28441
lowerback 14.9189 2.14986 -4.38387
upperback 7.11413 2.17323 -0.130057
thorax -0.981142 0.96114 1.9979
lowerneck 8.37818 -12.2357 -6.44474
upperneck 2.95751 -16.8396 8.58298
head 0.919955 -8.54912 4.0207
rclavicle -1.31198e-014 -7.95139e-015
rhumerus -29.8006 20.1427 -63.4921
rradius 135.663
rwrist -73.3962
rhand 56.1751 -2.98678
rfingers 7.12502
rthumb 73.3537 16.795
lclavicle -1.31198e-014 -7.95139e-015
lhumerus -15.6711 -19.9822 56.4971
lradius 140.386
lwrist 73.4289
lhand 35.6315 48.836
lfingers 7.12502
lthumb 58.6859 63.9255
rfemur -35.4377 4.44608 7.39679
rtibia 62.3804
rfoot -26.8676 -13.575
rtoes -20.961
lfemur -27.4442 7.75996 -31.0038
ltibia 59.0741
lfoot -36.3565 18.8724
ltoes -14.4579
1841
root 1.43108 16.3232 0.164423 2.418 -18.1775 5.31422
lowerback 14.9045 2.15586 -4.34884
upperback 7.17841 2.18565 -0.200209
thorax -0.902698 0.966519 1.90434
lowerneck 8.2228 -12.238 -6.40356
upperneck 2.99409 -16.8376 8.63829
head 0.960141 -8.54502 4.01811
rclavicle -3.55825e-014 2.06736e-014
rhumerus -29.6249 20.3928 -63.1434
rradius 135.554
rwrist -73.344
rhand 56.0074 -3.14443
rfingers 7.12502
rthumb 73.2816 16.1321
lclavicle -3.55825e-014 2.06736e-014
lhumerus -15.3713 -20.4105 55.5734
lradius 140.41
lwrist 73.3911
lhand 35.62 48.5664
lfingers 7.12502
lthumb 58.676 63.6653
rfemur -35.2684 4.48065 7.38004
rtibia 62.23
rfoot -26.942 -13.466
rtoes -20.3451
lfemur -27.3082 7.77953 -30.998
ltibia 58.9375
lfoot -36.2374 18.8898
ltoes -14.195
1842
root 1.42455 16.333 0.172327 2.40755 -18.1767 5.25707
lowerback 14.7891 2.14735 -4.29761
upperback 7.22191 2.18821 -0.207226
thorax -0.794155 0.966414 1.87185
lowerneck 8.20429 -12.2136 -6.34892
upperneck 2.98115 -16.7972 8.55283
head 0.941866 -8.52316 3.98089
rclavicle 3.1408e-014 -1.07344e-014
rhumerus -29.4798 20.8576 -62.7031
rradius 135.447
rwrist -73.285
rhand 55.835 -3.21579
rfingers 7.12502
rthumb 73.2061 15.5461
lclavicle 3.1408e-014 -1.07344e-014
lhumerus -15.1767 -20.8767 54.6153
lradius 140.42
lwrist 73.3134
lhand 35.4974 48.2971
lfingers 7.12502
lthumb 58.5696 63.4962
rfemur -35.0917 4.51129 7.46485
rtibia 62.0554
rfoot -26.9163 -13.5033
rtoes -20.5745
lfemur -27.1638 7.80911 -30.9074
ltibia 58.7851
lfoot -36.1896 18.8647
ltoes -14.3491
1843
root 1.41824 16.3457 0.17895 2.40577 -18.1645 5.19962
lowerback 14.7162 2.14835 -4.23493
upperback 7.21572 2.20144 -0.220304
thorax -0.760736 0.974338 1.82287
lowerneck 8.268 -12.1886 -6.23921
upperneck 2.92312 -16.7502 8.40215
head 0.882693 -8.49867 3.92186
rclavicle 1.64991e-014 -5.56597e-015
rhumerus -29.3585 21.324 -62.118
rradius 135.355
rwrist -73.4161
rhand 55.8516 -3.25256
rfingers 7.12502
rthumb 73.2134 15.5586
lclavicle 1.64991e-014 -5.56597e-015
lhumerus -14.9428 -21.5108 53.5279
lradius 140.483
lwrist 73.3594
lhand 35.1445 48.1129
lfingers 7.12502
lthumb 58.263 63.596
rfemur -34.9398 4.48656 7.56154
rtibia 61.8692
rfoot -26.7912 -13.6226
rtoes -21.1476
lfemur -27.0149 7.81679 -30.8151
ltibia 58.6092
lfoot -36.1848 18.7812
ltoes -14.3087
1844
root 1.41367 16.359 0.183626 2.42369 -18.1171 5.19978
lowerback 14.6582 2.1535 -4.19317
upperback 7.16792 2.21604 -0.239353
thorax -0.779547 0.984342 1.77805
lowerneck 8.3248 -12.1414 -6.18589
upperneck 2.88212 -16.6794 8.25106
head 0.833688 -8.46251 3.87128
rclavicle 1.11319e-014 -1.07344e-014
rhumerus -29.2534 21.8343 -61.3959
rradius 135.309
rwrist -73.4514
rhand 55.7459 -3.08958
rfingers 7.12502
rthumb 73.1665 15.408
lclavicle 1.11319e-014 -1.07344e-014
lhumerus -14.6354 -22.2938 52.3336
lradius 140.63
lwrist 73.4474
lhand 34.3926 47.9137
lfingers 7.12502
lthumb 57.6067 63.9828
rfemur -34.8411 4.43192 7.58082
rtibia 61.6914
rfoot -26.7281 -13.6059
rtoes -21.2509
lfemur -26.9093 7.79453 -30.7945
ltibia 58.4137
lfoot -36.0619 18.8289
ltoes -14.5941
1845
root 1.41016 16.3708 0.190628 2.46813 -18.0359 5.1945
lowerback 14.5237 2.13805 -4.17888
upperback 7.11284 2.20565 -0.205044
thorax -0.766826 0.980157 1.8104
lowerneck 8.31394 -12.0399 -6.26518
upperneck 2.90773 -16.5491 8.07968
head 0.823361 -8.3959 3.82871
rclavicle -1.8487e-014 3.22031e-014
rhumerus -29.092 22.5344 -60.4804
rradius 135.338
rwrist -73.387
rhand 55.4092 -2.83432
rfingers 7.12502
rthumb 73.0137 14.6766
lclavicle -1.8487e-014 3.22031e-014
lhumerus -14.1219 -22.9579 50.9549
lradius 140.677
lwrist 73.6051
lhand 33.5152 47.4892
lfingers 7.12502
lthumb 56.8365 64.2107
rfemur -34.722 4.34687 7.59148
rtibia 61.5158
rfoot -26.7431 -13.4927
rtoes -20.8866
lfemur -26.8175 7.70011 -30.7741
ltibia 58.2214
lfoot -35.9617 18.8418
ltoes -14.201
1846
root 1.4056 16.382 0.197117 2.4821 -17.9788 5.24693
lowerback 14.4132 2.10348 -4.34645
upperback 7.01616 2.14563 -0.15318
thorax -0.813135 0.948647 1.96942
lowerneck 8.32623 -11.8736 -6.2692
upperneck 2.94203 -16.325 7.76304
head 0.783747 -8.28053 3.72955
rclavicle -1.86858e-014 7.15625e-015
rhumerus -28.8345 23.4326 -59.4587
rradius 135.36
rwrist -73.4193
rhand 55.1976 -2.642
rfingers 7.12502
rthumb 72.915 14.2579
lclavicle -1.86858e-014 7.15625e-015
lhumerus -13.5805 -23.5527 49.4073
lradius 140.613
lwrist 73.673
lhand 33.2187 46.8998
lfingers 7.12502
lthumb 56.5751 63.8344
rfemur -34.5866 4.27098 7.54811
rtibia 61.3503
rfoot -26.7404 -13.4274
rtoes -20.7876
lfemur -26.708 7.62097 -30.8151
ltibia 58.0343
lfoot -35.9012 18.863
ltoes -13.8079
1847
root 1.39911 16.3941 0.201826 2.49727 -17.9529 5.21841
lowerback 14.3507 2.05691 -4.47416
upperback 6.93027 2.07236 -0.096014
thorax -0.871195 0.911415 2.11246
lowerneck 8.37574 -11.6558 -6.12439
upperneck 2.74457 -16.0105 7.40389
head 0.638939 -8.12023 3.6062
rclavicle 1.8487e-014 -1.86858e-014
rhumerus -28.3942 24.3436 -58.3543
rradius 135.375
rwrist -73.5938
rhand 54.8964 -2.43665
rfingers 7.12502
rthumb 72.7711 13.6063
lclavicle 1.8487e-014 -1.86858e-014
lhumerus -13.1763 -24.2416 47.9771
lradius 140.61
lwrist 73.5777
lhand 33.0395 46.5189
lfingers 7.12502
lthumb 56.4168 63.5807
rfemur -34.4484 4.27803 7.60243
rtibia 61.1739
rfoot -26.7426 -13.4135
rtoes -20.5529
lfemur -26.603 7.61024 -30.7509
ltibia 57.8632
lfoot -35.8207 18.8597
ltoes -14.0032
